<?xml version="1.0" encoding="UTF-8"?>
<svg id="Layer_1" data-name="Layer 1" xmlns="http://www.w3.org/2000/svg" viewBox="0 0 57.3 66.67">
  <defs>
    <style>
      .cls-1 {
        fill: #231f20;
      }
    </style>
  </defs>
  <path class="cls-1" d="M27.43,36.86c.12.38-.02.73-.42,1.05-2.32,1.52-4.71,2.9-7.17,4.11-2.46,1.2-5.03,2.16-7.7,2.88-2.16.63-4.37.95-6.64.95-2.09-.05-3.6-.64-4.54-1.79-.94-1.15-1.18-2.75-.74-4.82.54-1.99,1.42-3.81,2.64-5.45,1.2-1.66,2.59-3.13,4.18-4.39.94-.75,2.02-1.32,3.23-1.72,1.2-.42,2.38-.33,3.55.28,1.03.73,1.51,1.64,1.44,2.74-.09,1.12-.54,2.1-1.34,2.92-.47.42-.94.55-1.41.39-.47-.14-.79-.43-.95-.88-.19-.47-.09-.95.28-1.44h.04v-.04c.16-.16.42-.46.77-.88.33-.42.61-.84.84-1.27.21-.44.2-.76-.04-.95-.56-.33-1.38-.14-2.46.56-1.05.7-2.16,1.68-3.3,2.92-1.17,1.27-2.2,2.58-3.09,3.94-.38.59-.83,1.39-1.37,2.43-.52,1.01-.93,2.03-1.23,3.06-.33,1.05-.36,1.91-.11,2.57.61,1.12,1.99,1.5,4.15,1.12,2.18-.37,4.62-1.15,7.31-2.32,2.72-1.17,5.21-2.4,7.49-3.69,2.27-1.29,3.83-2.29,4.68-2.99.4-.3.79-.36,1.16-.18.4.19.64.48.74.88Z"/>
  <path class="cls-1" d="M57.1.72c.21.42.26.99.14,1.71-.12.72-.28,1.39-.49,2.02-.07.23-.13.43-.18.6-1.17,4.5-3,10-5.48,16.49-1.57,4.2-3.09,8.47-4.57,12.83s-2.65,8.53-3.52,12.52c-.87,3.98-1.18,7.51-.95,10.56.23,3.06,1.29,5.38,3.16,6.98.26.26.39.56.4.9.01.34-.1.65-.33.93-.3.33-.67.46-1.11.4-.43-.06-.77-.29-1-.69-.82-1.5-1.32-3.13-1.51-4.89-.19-1.76-.26-3.48-.21-5.17.12-5.72.95-11.33,2.5-16.84,1.97-6.98,4.09-13.92,6.36-20.81.4-1.29.81-2.58,1.23-3.87,1.1-3.28,2.13-6.57,3.09-9.88.02-.12.02-.19-.02-.23s-.08-.04-.14-.02c-.06.02-.11.06-.16.11-.3.52-.61,1.04-.91,1.58-2.6,4.78-5.1,9.63-7.49,14.55-1.92,3.94-3.91,7.85-5.98,11.74.73.7,1.36,1.46,1.9,2.29.3.61.32,1.14.04,1.6s-.69.72-1.21.79-1-.15-1.42-.67c-.28-.42-.56-.81-.84-1.16-.05.12-.11.22-.18.32-.09.19-.2.38-.32.56-1.92,3.61-4.11,7.07-6.57,10.37-.8,1.03-1.76,2.03-2.9,3.01-1.14.97-2.41,1.34-3.81,1.11-.09-.02-.19-.06-.28-.11-1.27-.63-1.92-1.7-1.97-3.2-.05-1.5.21-3.05.77-4.64.56-1.59,1.1-2.87,1.62-3.83,1.17-2.34,2.73-4.42,4.68-6.22,1.45-1.38,3.2-2.18,5.24-2.39,1.05-.07,2.04.11,2.95.53,2.23-4.05,4.41-8.14,6.54-12.27,1.62-3.09,3.26-6.18,4.92-9.25,1.15-2.16,2.38-4.27,3.69-6.33.05-.05.08-.09.11-.14.42-.68.95-1.32,1.58-1.93,0-.02.01-.05.04-.07.21-.19.47-.35.77-.49.33-.14.67-.16,1.02-.05s.62.32.81.65ZM25.46,47.48h-.04.04ZM25.56,47.44c.94-.33,2.01-1.25,3.22-2.76,1.21-1.51,2.37-3.16,3.5-4.96s2.03-3.29,2.71-4.48c.16-.26.3-.48.42-.67.21-.4.43-.8.67-1.2-1.1-.33-2.31.07-3.62,1.2-1.31,1.12-2.55,2.57-3.71,4.34-1.16,1.77-2.05,3.46-2.67,5.08s-.79,2.77-.51,3.45Z"/>
</svg>