<?xml version="1.0" encoding="UTF-8"?>
<svg id="Layer_1" data-name="Layer 1" xmlns="http://www.w3.org/2000/svg" viewBox="0 0 103.48 85">
  <defs>
    <style>
      .cls-1, .cls-2 {
        fill: #231f20;
      }

      .cls-2 {
        font-family: MyriadPro-Regular, 'Myriad Pro';
        font-size: 12px;
      }

      .cls-3 {
        letter-spacing: 0em;
      }

      .cls-4 {
        letter-spacing: -.01em;
      }

      .cls-5 {
        letter-spacing: -.01em;
      }
    </style>
  </defs>
  <text class="cls-2" transform="translate(38.02 82)"><tspan class="cls-4" x="0" y="0">L</tspan><tspan x="5.5" y="0">o</tspan><tspan class="cls-5" x="12.08" y="0">r</tspan><tspan class="cls-3" x="15.89" y="0">em ipsum</tspan></text>
  <g>
    <path class="cls-1" d="M18.28,24.57c.08.25-.02.48-.28.7-1.55,1.02-3.14,1.93-4.78,2.74-1.64.8-3.35,1.44-5.13,1.92-1.44.42-2.91.63-4.43.63-1.39-.03-2.4-.43-3.02-1.2s-.79-1.84-.49-3.21c.36-1.33.95-2.54,1.76-3.63.8-1.11,1.73-2.09,2.79-2.93.62-.5,1.34-.88,2.16-1.15.8-.28,1.59-.22,2.37.19.69.48,1.01,1.09.96,1.83-.06.75-.36,1.4-.89,1.95-.31.28-.62.37-.94.26-.31-.09-.52-.29-.63-.59-.12-.31-.06-.63.19-.96h.02v-.02c.11-.11.28-.3.52-.59.22-.28.41-.56.56-.84.14-.3.13-.51-.02-.63-.38-.22-.92-.09-1.64.38-.7.47-1.44,1.12-2.2,1.95-.78.84-1.47,1.72-2.06,2.62-.25.39-.55.93-.91,1.62-.34.67-.62,1.35-.82,2.04-.22.7-.24,1.27-.07,1.71.41.75,1.33,1,2.77.75,1.45-.25,3.08-.77,4.88-1.55,1.81-.78,3.48-1.6,4.99-2.46,1.52-.86,2.55-1.52,3.12-1.99.27-.2.52-.24.77-.12.27.12.43.32.49.59Z"/>
    <path class="cls-1" d="M38.06.48c.14.28.17.66.09,1.14s-.19.93-.33,1.35c-.05.16-.09.29-.12.4-.78,3-2,6.66-3.66,10.99-1.05,2.8-2.06,5.65-3.05,8.55s-1.77,5.69-2.34,8.34-.79,5-.63,7.04.86,3.59,2.11,4.65c.17.17.26.37.27.6s-.07.43-.22.62c-.2.22-.45.31-.74.27s-.51-.19-.67-.46c-.55-1-.88-2.09-1.01-3.26-.12-1.17-.17-2.32-.14-3.45.08-3.81.63-7.55,1.66-11.23,1.31-4.66,2.73-9.28,4.24-13.88.27-.86.54-1.72.82-2.58.73-2.19,1.42-4.38,2.06-6.59.02-.08.01-.13-.01-.15s-.05-.03-.09-.01-.07.04-.11.07c-.2.34-.41.7-.61,1.05-1.73,3.19-3.4,6.42-4.99,9.7-1.28,2.62-2.61,5.23-3.98,7.83.48.47.91.98,1.27,1.52.2.41.21.76.02,1.07s-.46.48-.81.53-.67-.1-.95-.45c-.19-.28-.38-.54-.56-.77-.03.08-.07.15-.12.21-.06.12-.13.25-.21.38-1.28,2.41-2.74,4.71-4.38,6.91-.53.69-1.18,1.36-1.93,2s-1.61.89-2.54.74c-.06-.02-.12-.04-.19-.07-.84-.42-1.28-1.13-1.31-2.13s.14-2.03.52-3.09.73-1.91,1.08-2.55c.78-1.56,1.82-2.95,3.12-4.15.97-.92,2.13-1.45,3.49-1.59.7-.05,1.36.07,1.97.35,1.48-2.7,2.94-5.43,4.36-8.18,1.08-2.06,2.17-4.12,3.28-6.16.77-1.44,1.59-2.84,2.46-4.22.03-.03.05-.06.07-.09.28-.45.63-.88,1.05-1.29,0-.02,0-.03.02-.05.14-.12.31-.23.52-.33.22-.09.45-.11.68-.04s.41.21.54.43ZM16.97,31.65h-.02.02ZM17.04,31.63c.62-.22,1.34-.83,2.14-1.84s1.58-2.11,2.33-3.3,1.35-2.19,1.8-2.99c.11-.17.2-.32.28-.45.14-.27.29-.53.45-.8-.73-.22-1.54.05-2.41.8s-1.7,1.71-2.47,2.89-1.37,2.31-1.78,3.39-.53,1.84-.34,2.3Z"/>
  </g>
</svg>