<?xml version="1.0" encoding="UTF-8"?>
<svg id="Layer_1" data-name="Layer 1" xmlns="http://www.w3.org/2000/svg" viewBox="0 0 446.1 95.63">
  <defs>
    <style>
      .cls-1 {
        fill: #231f20;
      }
    </style>
  </defs>
  <path class="cls-1" d="M39.54,45.19c.28-.26.57-.35.86-.26.29.08.5.26.63.53.13.27.08.57-.16.9-3.56,3.66-7.38,7.02-11.46,10.09-.16.12-.33.23-.49.35l-1.27.91c-.49.35-.98.68-1.48.98-.12.09-.22.18-.32.25-1.99,1.29-4.06,2.46-6.19,3.52-2.13,1.05-4.36,1.85-6.68,2.39-.12.02-.23.05-.35.07-.26.05-.5.08-.74.11-.75.12-1.5.18-2.25.18s-1.5-.11-2.25-.32l-.56-.18c-.12-.05-.23-.09-.35-.14-.05-.02-.11-.05-.18-.07-.12-.05-.23-.11-.35-.18-.05-.02-.09-.05-.14-.07l-.53-.28c-2.77-1.69-4.42-4-4.97-6.94-.55-2.94-.39-6.12.47-9.53.87-3.41,2.06-6.68,3.57-9.81s2.95-5.75,4.31-7.86c3.87-6.3,8.57-11.89,14.1-16.77,1.45-1.24,3.02-2.35,4.71-3.32,1.69-.97,3.5-1.56,5.45-1.78,1.43-.12,2.68.16,3.74.84,1.07.68,1.79,1.72,2.16,3.13.42,1.73.4,3.8-.05,6.19s-1.12,4.76-1.99,7.1c-.87,2.34-1.71,4.32-2.53,5.94-.38.77-.83,1.51-1.37,2.21-.26.3-.57.48-.95.53-.38.05-.73-.06-1.05-.32-.4-.33-.58-.73-.54-1.21.04-.48.26-.86.69-1.14,1.03-.8,1.89-1.78,2.57-2.95,2.32-3.66,3.7-7.62,4.15-11.88.12-1.24,0-2.5-.35-3.76s-1.17-2.07-2.46-2.43c-1.64-.21-3.53.35-5.66,1.67-2.13,1.32-4.17,2.89-6.12,4.69-1.95,1.81-3.47,3.33-4.57,4.57-2.86,3.14-5.47,6.48-7.84,10.02-3.26,4.69-5.85,9.7-7.77,15.05-.87,2.41-1.38,4.95-1.55,7.61-.16,2.66.54,5.07,2.11,7.22.66.8,1.43,1.45,2.32,1.97l.46.25s.11.05.18.07c.09.05.19.09.28.14.14.07.29.13.46.19.16.06.33.12.49.19.63.16,1.29.26,1.97.28.52.02,1.03,0,1.55-.07l.53-.04c.21-.05.44-.09.7-.14.12-.02.22-.04.32-.04,2.27-.52,4.45-1.29,6.52-2.32,2.07-1.03,4.06-2.19,5.96-3.48.12-.07.23-.14.35-.21.47-.33.94-.67,1.41-1.02.42-.3.83-.61,1.23-.91.16-.12.33-.23.49-.35l.42-.35c.42-.33.83-.67,1.23-1.02,3.3-2.74,6.35-5.74,9.14-9Z"/>
  <path class="cls-1" d="M67.14,45.4c.07.16.11.34.11.53-.02.33-.14.56-.35.7s-.45.18-.7.12c-.26-.06-.45-.23-.56-.51l-.11-.11c-.09-.12-.2-.23-.32-.35-.56-.21-1.17-.35-1.83-.42-.02,0-.05-.01-.07-.04-1.12-.14-2.27-.22-3.45-.25-3.12-.09-6.23-.08-9.35.04-.19.02-.35.09-.49.21s-.22.27-.25.46c-.47,2.62-1.65,4.86-3.55,6.71-.02.02-.06.05-.11.07l-.25.25c-.33.26-.66.52-.98.77-.59.42-1.26.72-2.02.9-.76.18-1.48.05-2.16-.37l-.14-.11c-.09-.07-.19-.15-.28-.25-.16-.16-.3-.34-.42-.53-.66-1.15-.95-2.43-.9-3.85.06-1.42.29-2.72.69-3.92.47-1.59,1.27-3.04,2.39-4.34s2.55-1.99,4.29-2.06c.28,0,.64.06,1.09.19.44.13.8.32,1.07.56.27.25.29.57.05.97-.12.14-.28.24-.47.3-.2.06-.36.02-.47-.12-.89-1.01-1.74-1.44-2.55-1.3s-1.46.62-1.95,1.44c-.56.98-1.01,2.3-1.34,3.94-.33,1.64-.49,3.02-.49,4.15,0,.42.04.86.11,1.3s.2.83.39,1.16c.09.16.22.27.39.32.33.12.83-.05,1.49-.51s1.32-1.18,1.95-2.16,1.07-2.21,1.3-3.69c.02-.19-.01-.36-.11-.53-.09-.16-.23-.28-.42-.35-.35-.12-.69-.29-1-.53s-.56-.55-.72-.95c-.14-.37-.13-.76.04-1.14.16-.39.43-.66.81-.83.28-.14.5-.21.67-.21.63-.05,1.29.09,1.97.42.68.33,1.2.77,1.55,1.34.09.19.25.3.46.35,2.69.54,5.43.79,8.19.74.54.02,1.07.04,1.58.04h.21c1.1.02,2.21.07,3.34.14.12,0,.23.01.35.04.82,0,1.64.15,2.46.46.16.07.33.18.49.32.16.14.29.3.39.49Z"/>
  <path class="cls-1" d="M99.8,45.19c.16.21.23.45.21.7-.02.26-.14.47-.35.63l-.04.04c-.49.28-1.04.6-1.65.95-1.69.98-3.62,2.04-5.78,3.18-2.17,1.14-4.31,2.08-6.43,2.83-2.12.75-3.97,1.04-5.54.88-.21-.05-.42-.11-.63-.18-.4-.16-.76-.39-1.09-.67-.16-.14-.3-.29-.42-.46-.96-1.5-1.34-3.35-1.12-5.55,0-.12-.05-.19-.16-.23s-.19,0-.26.09c-.96,1.34-1.99,2.62-3.09,3.87-.7.75-1.52,1.46-2.44,2.14-.93.68-1.95.97-3.08.88-.05,0-.11-.01-.18-.04h-.04c-1.01-.26-1.76-.84-2.25-1.76-.61-1.36-.83-2.85-.65-4.48s.47-3.13.9-4.52c.3-.98.69-1.95,1.16-2.88.16-.33.36-.66.6-.98.23-.33.53-.52.9-.58.36-.06.71.02,1.04.23.33.26.52.57.58.93.06.36-.02.71-.23,1.04-.73,1.22-1.32,2.8-1.78,4.75-.46,1.95-.51,3.59-.16,4.92.02.09.06.18.11.25v.04c.07.16.18.29.32.39.02,0,.06.01.11.04h.14c1.29-.42,2.69-1.55,4.2-3.38s2.68-3.35,3.5-4.57c.73-1.03,1.43-2.09,2.11-3.16.23-.33.53-.49.88-.49s.64.13.88.39c.23.26.3.59.21.98-.07.26-.15.53-.25.81-.59,1.76-1.05,3.55-1.41,5.38-.16.91-.23,1.9-.19,2.95s.43,1.9,1.18,2.53c.12.07.25.14.39.21l.42.14h.04c1.76.19,3.77-.19,6.05-1.14,2.27-.95,4.49-2.12,6.64-3.5,2.16-1.38,3.93-2.64,5.31-3.76.21-.16.44-.23.7-.19.26.04.48.16.67.37Z"/>
  <path class="cls-1" d="M129.15,45.82c.05.23,0,.45-.16.63-.15.19-.36.28-.62.28h-.98c-1.69.05-3.38.05-5.06,0h-.28c-1.27-.05-2.63-.15-4.1-.32-1.46-.16-2.84-.51-4.13-1.04-1.29-.53-2.3-1.34-3.02-2.44-.56-1.01-.88-2.06-.95-3.16-.02-.12-.04-.23-.04-.35-.02-.37-.12-.7-.28-.98h-.35c-1.17.52-2.44,2.1-3.81,4.75-1.37,2.65-2.62,5.45-3.76,8.4-1.14,2.95-1.94,5.13-2.41,6.54-.23.54-.58.85-1.04.93s-.87-.02-1.23-.32c-.36-.29-.52-.73-.47-1.32.47-2.74.87-5.12,1.21-7.12.34-2,.68-4.01,1.02-6.01.34-2,.74-4.38,1.21-7.12.16-.61.48-.98.95-1.11.47-.13.9-.05,1.3.23.4.28.57.73.53,1.34l-1.16,6.86s.02.09.05.12.07.05.11.04.06-.04.09-.09c.54-1.1,1.2-2.28,1.97-3.53.77-1.25,1.62-2.33,2.55-3.23.93-.9,1.89-1.38,2.9-1.42.52,0,.98.14,1.39.4.41.27.7.65.86,1.14.14.61.2,1.22.18,1.83,0,.45.02.88.07,1.3.33,1.71,1.29,2.87,2.9,3.48,1.6.61,3.2.96,4.8,1.05,2.98.19,5.93.04,8.86-.46.23-.02.44.03.62.16s.28.31.3.54Z"/>
  <path class="cls-1" d="M169.93,23.99c.02.09.05.19.07.28,0,.09-.01.2-.04.32-.09.38-.29.62-.6.74-.3.12-.6.1-.88-.05-.28-.15-.45-.43-.49-.83-.63-.33-1.35-.55-2.14-.67h-.04c-.56-.12-1.15-.2-1.76-.25-2.98-.3-5.99-.44-9.04-.42-5.16,0-10.31.13-15.47.39-.94,1.62-1.92,3.21-2.95,4.78-.77,1.2-1.62,2.37-2.53,3.52-.07.09-.16.18-.28.25-.98,3.14-1.89,6.31-2.71,9.49-.14.54-.35,1.25-.63,2.14-.56,1.88-1.21,4.21-1.93,7s-1.28,5.68-1.65,8.67c-.37,2.99-.35,5.71.09,8.16.43,2.45,1.52,4.25,3.25,5.4.3.16.63.22.98.18.3,0,.56.11.76.32.2.21.31.47.33.77,0,.3-.1.56-.3.76-.2.2-.45.31-.76.33-.21,0-.41-.05-.6-.14-.96-.47-1.73-1.08-2.32-1.83-1.17-1.76-1.87-3.76-2.09-6.01-.22-2.25-.28-4.41-.16-6.47.33-4.97.98-9.91,1.97-14.82s2.2-9.76,3.66-14.54c-.19-.49-.12-.96.21-1.41.09-.14.2-.28.32-.42.02-.02.05-.06.07-.11.63-1.92,1.3-3.84,2-5.77-1.66.07-3.45.15-5.34.25-3.7.16-7.16.35-10.37.56-.66.02-1.3.07-1.93.14-1.52.14-3.06.18-4.61.11h-.07c-.16-.02-.35-.07-.56-.14-.07-.02-.14-.06-.21-.11-.05-.02-.09-.05-.14-.07-.09-.05-.16-.12-.21-.21-.12-.12-.2-.26-.25-.42-.05-.23-.04-.46.04-.67.19-.42.48-.63.88-.63s.7.2.91.6c1.78.4,3.6.6,5.45.6h.7c3.77,0,7.78-.15,12.02-.46,1.38-.07,2.69-.14,3.94-.21.66-1.83,1.71-4.39,3.15-7.7s3.04-6.45,4.78-9.44c1.75-2.99,3.38-4.9,4.9-5.75.42-.19.87-.23,1.34-.14.47.09.82.36,1.05.81.07.16.11.3.11.42.02.16.04.29.04.39-.09.66-.26,1.28-.49,1.86-.02.09-.06.2-.11.32-.23.68-.49,1.35-.77,2-2.53,5.79-5.37,11.41-8.51,16.88.77-.05,1.56-.09,2.36-.14,5.55-.35,10.99-.6,16.31-.74h1.02c1.52-.05,3.22-.02,5.08.09s3.3.42,4.31.93c.21.12.42.32.63.6.05.07.09.15.14.25.02.09.05.19.07.28ZM112.21,23.07h.04l-.07-.07h-.07l.04.04.07.04ZM143.46,9.4c-1.9,3.47-3.62,7.03-5.17,10.69,2.58-4.52,4.94-9.16,7.1-13.92-.68,1.05-1.32,2.13-1.93,3.23ZM168.07,24.48s0,.04.02.05c.01.01,0,0-.02-.02v-.04Z"/>
  <path class="cls-1" d="M173.9,45.4c.14.21.19.44.14.69-.05.25-.19.44-.42.58-2.09,1.27-4.22,2.44-6.4,3.52-1.31.66-2.75,1.24-4.31,1.74-1.56.5-3.09.7-4.61.6s-2.87-.74-4.06-1.92c-.7-.75-1.28-1.58-1.72-2.48-.45-.9-.83-1.81-1.16-2.72-.02-.05-.05-.09-.07-.14-.05-.16-.11-.32-.18-.46-.19-.56-.43-1.09-.74-1.58-.02-.02-.05-.04-.09-.05-.04-.01-.08,0-.12.02-.87.52-1.66,1.16-2.39,1.93-.12.12-.23.23-.35.35-1.62,1.69-3.16,3.46-4.64,5.31-.91,1.1-1.81,2.21-2.67,3.34-.26.33-.57.52-.95.56-.38.05-.73-.06-1.05-.32-.37-.3-.55-.7-.53-1.2.3-4.45,1.14-8.81,2.5-13.08.26-.59.63-.91,1.11-.97.48-.06.9.08,1.25.42.35.34.46.81.32,1.42-.75,2.3-1.32,4.64-1.72,7.03,0,.05.01.08.04.11.02.02.06.04.11.04s.08-.01.11-.04c1.34-1.59,2.75-3.12,4.25-4.57.09-.09.19-.18.28-.25.66-.66,1.44-1.3,2.36-1.93s1.83-.88,2.74-.74c.54.14.98.47,1.32.98.34.52.59,1.01.76,1.48.21.59.42,1.18.63,1.79.47,1.62,1.1,3.15,1.9,4.61,1.12,1.76,2.57,2.58,4.32,2.46s3.51-.67,5.26-1.67c1.75-1,3.18-1.92,4.31-2.76.37-.26.68-.47.91-.63.8-.54,1.58-1.09,2.36-1.65.19-.14.4-.2.63-.18.23.02.43.14.6.35Z"/>
  <path class="cls-1" d="M201.26,45.29c.21.33.26.67.16,1.02s-.32.61-.65.77c-.49.21-1.03.46-1.62.74-2.32,1.1-5.1,2.31-8.33,3.62s-6.39,2.29-9.48,2.94c-3.08.64-5.55.51-7.4-.4-.16-.09-.32-.19-.46-.28h-.04c-1.48-1.12-2.19-2.58-2.14-4.38.05-1.79.59-3.56,1.63-5.31,1.04-1.75,2.34-3.12,3.88-4.13,1.55-1.01,3.11-1.28,4.68-.81.12.05.23.09.35.14.02.02.06.05.12.07.06.02.11.05.16.07l.04.04c.47.26.8.64.98,1.14.19.5.23,1,.14,1.49-.21,1.08-.65,2.08-1.32,3.01-.67.93-1.42,1.72-2.27,2.37-1.15.96-2.47,1.57-3.97,1.83-.73.12-1.48.07-2.25-.14-.07.59.04,1.33.33,2.23.29.9.79,1.58,1.49,2.02,1.45.68,3.23.8,5.34.35s4.24-1.14,6.38-2.09,3.99-1.82,5.54-2.62c.26-.14.49-.27.7-.39,2.18-1.08,4.28-2.29,6.29-3.62.28-.19.58-.25.9-.19s.58.23.79.51ZM177,43.18c-.94.77-1.79,1.85-2.57,3.23.89.07,1.73-.14,2.51-.63.79-.49,1.48-1.08,2.09-1.76.63-.68,1.09-1.44,1.37-2.29-.61-.12-1.22-.01-1.83.32-.61.33-1.14.7-1.58,1.12Z"/>
  <path class="cls-1" d="M237.54,44.73c.42.02.71.19.88.49s.18.62.04.93-.43.5-.88.54c-1.71-.05-3.41.08-5.1.39-5.32,1.1-9.98,3.42-13.99,6.96-.05.07-.08.14-.11.21-.96,3.82-2.36,8.63-4.2,14.43s-3.87,11.24-6.1,16.33-4.41,8.45-6.54,10.09c-.38.28-.81.45-1.32.51s-.96-.06-1.35-.37c-.66-.63-1-1.66-1.02-3.08s.11-2.87.4-4.34.54-2.65.76-3.52c1.43-5.39,3.56-10.75,6.38-16.08,2.82-5.33,6.35-10.03,10.56-14.08.05-.07.08-.14.11-.21.28-1.2.57-2.39.88-3.59.82-3.16,1.51-6.04,2.06-8.63.55-2.59.77-4.52.65-5.78v-.07c-.02-.21-.07-.43-.14-.67-.07-.23-.22-.37-.46-.42-1.1.05-2.23.86-3.38,2.43-1.15,1.57-2.34,3.45-3.59,5.62-.96,1.69-1.95,3.31-2.97,4.85s-2.07,2.79-3.15,3.74-2.19,1.38-3.34,1.28c-1.2-.19-2.03-.74-2.51-1.65s-.69-1.93-.62-3.06c.14-1.64.42-3.21.84-4.71.07-.26.14-.5.21-.74.02-.12.05-.25.07-.39.14-.54.23-1.07.28-1.58v-.07c-.05-.61.13-1.05.54-1.34s.85-.35,1.32-.21.77.5.91,1.09c.05.42.05.75,0,.98v.07c-.05.49-.21,1.28-.49,2.36-.23.89-.46,1.81-.67,2.76s-.31,1.78-.3,2.48.23,1.14.65,1.3h.14s.01.04.04.04c.82.05,1.71-.36,2.67-1.21s1.89-1.89,2.78-3.11,1.65-2.33,2.29-3.34c.3-.44.56-.82.77-1.12.12-.19.23-.36.35-.53.87-1.34,1.78-2.64,2.74-3.9.61-.8,1.36-1.52,2.25-2.18.89-.66,1.86-.73,2.92-.21.14.09.27.2.39.32l.21.21c.56.8.8,2.13.72,4.01-.08,1.88-.32,3.87-.72,5.99-.4,2.12-.79,3.96-1.16,5.5-.02.19.04.32.18.4s.29.08.46-.02c2.53-1.85,5.27-3.32,8.21-4.39,2.94-1.08,6.09-1.65,9.44-1.72ZM200.48,93.42c1.36-.96,2.89-3.23,4.59-6.8s3.4-7.83,5.1-12.78c1.7-4.95,3.24-9.96,4.62-15.05.02-.12,0-.22-.07-.32s-.16-.15-.28-.16-.22.03-.32.12c-2.7,3.16-5.03,6.59-7,10.28s-3.59,7.38-4.85,11.06c-1.15,3.28-1.95,6.63-2.39,10.05-.09.84-.13,1.66-.11,2.46.02.3.06.6.11.88.05.14.13.23.25.28s.23.04.35-.04Z"/>
  <path class="cls-1" d="M303.84,43.64c.45.12.7.35.77.7.07.35,0,.67-.23.95s-.57.38-1.04.28c-3.98-1.22-8.09-1.78-12.3-1.69-3.49,6.96-7.62,12.6-12.38,16.91-1.48,1.31-3.13,2.38-4.97,3.22-1.84.83-3.77,1.06-5.78.69-1.22-.23-2.09-.8-2.62-1.71-.53-.9-.7-1.95-.51-3.15.38-1.97,1.17-3.75,2.39-5.34,2.72-3.59,6.03-6.31,9.93-8.17s8.06-3.01,12.46-3.43c2.37-4.9,4.17-9.86,5.4-14.87,1.23-5.02,1.59-9.47,1.07-13.36-.26-1.71-.94-3.18-2.04-4.39-.94-.84-2-1.28-3.18-1.32s-2.33.23-3.43.79c-2.62,1.48-5.01,3.54-7.15,6.19-2.14,2.65-4.01,5.25-5.61,7.8-5.86,9.61-10.65,19.75-14.38,30.41-.12.33-.32.57-.6.74-.66.35-1.27.39-1.85.12s-.94-.78-1.11-1.53c-.14-1.27-.08-2.52.18-3.76.02-.21.05-.41.07-.6.3-1.78.66-3.53,1.05-5.24,1.27-5.7,2.61-11.41,4.04-17.16.4-1.59.8-3.2,1.2-4.82-.4.4-.82.56-1.27.47-.45-.08-.79-.32-1.04-.72-.25-.4-.24-.87.02-1.41l4.5-7.49c.33-.44.71-.67,1.16-.67s.82.16,1.12.49c.3.33.4.76.28,1.3-2.18,6.63-4.11,13.35-5.8,20.14-1.27,4.8-2.23,9.65-2.88,14.52,1.78-4.55,3.93-9.37,6.43-14.47s5.29-9.87,8.33-14.33c3.05-4.45,6.26-7.99,9.63-10.62,1.83-1.38,3.8-2.23,5.92-2.53,2.12-.3,4.11.35,5.96,1.97,1.43,1.57,2.3,3.4,2.62,5.48.32,2.09.38,4.14.19,6.15-.73,7.15-2.99,14.65-6.79,22.5,4.15-.21,8.21.09,12.2.91ZM277.83,59.81c4.05-3.73,7.79-9,11.21-15.82-4.52.35-8.78,1.63-12.76,3.83-2.32,1.24-4.51,2.92-6.57,5.04s-3.36,4.49-3.9,7.12c-.14.91-.02,1.71.35,2.37s1.03,1.09,1.97,1.28c1.83.28,3.57.02,5.22-.79s3.15-1.82,4.48-3.04Z"/>
  <path class="cls-1" d="M334.15,45.82c.05.23,0,.45-.16.63s-.36.28-.62.28h-.98c-1.69.05-3.38.05-5.06,0h-.28c-1.27-.05-2.63-.15-4.1-.32s-2.84-.51-4.13-1.04-2.3-1.34-3.02-2.44c-.56-1.01-.88-2.06-.95-3.16-.02-.12-.04-.23-.04-.35-.02-.37-.12-.7-.28-.98h-.35c-1.17.52-2.44,2.1-3.81,4.75-1.37,2.65-2.62,5.45-3.76,8.4s-1.94,5.13-2.41,6.54c-.23.54-.58.85-1.04.93s-.87-.02-1.23-.32-.52-.73-.47-1.32c.47-2.74.87-5.12,1.21-7.12l1.02-6.01c.34-2,.74-4.38,1.21-7.12.16-.61.48-.98.95-1.11.47-.13.9-.05,1.3.23s.57.73.53,1.34l-1.16,6.86s.02.09.05.12.07.05.11.04.06-.04.09-.09c.54-1.1,1.2-2.28,1.97-3.53.77-1.25,1.62-2.33,2.55-3.23.93-.9,1.89-1.38,2.9-1.42.52,0,.98.14,1.39.4.41.27.7.65.86,1.14.14.61.2,1.22.18,1.83,0,.45.02.88.07,1.3.33,1.71,1.29,2.87,2.9,3.48,1.61.61,3.21.96,4.8,1.05,2.98.19,5.93.04,8.86-.46.23-.02.44.03.62.16s.28.31.3.54Z"/>
  <path class="cls-1" d="M361.6,45.33c.14.28.16.56.05.84s-.3.49-.58.63c-6,2.39-12.12,4.44-18.35,6.15-.35.09-.73.19-1.12.28-1.27.33-2.55.57-3.85.72s-2.44-.02-3.41-.53-1.61-1.56-1.92-3.18c-.21-2.25.09-4.42.91-6.5.07-.19.15-.41.25-.67.23-.7.55-1.33.95-1.88.4-.55.97-.69,1.72-.4.38.19.62.47.72.86s.05.76-.16,1.11c-.7,1.29-1.22,2.95-1.55,4.98s-.13,3.72.6,5.08c.66.56,1.8.69,3.43.37s3.39-.83,5.27-1.53,3.54-1.36,4.97-1.97c.84-.35,1.51-.62,2-.81,1.48-.54,2.94-1.14,4.39-1.79s2.87-1.37,4.25-2.14c.26-.12.52-.14.79-.07s.47.22.62.46ZM336.47,37.38c-.59-.09-.98-.54-1.18-1.34-.2-.8-.2-1.59,0-2.39.2-.8.59-1.23,1.18-1.3.61.07,1.01.5,1.21,1.3.2.8.2,1.59,0,2.39-.2.8-.6,1.24-1.21,1.34Z"/>
  <path class="cls-1" d="M389.52,45.79c.05.33-.04.62-.25.88s-.49.4-.84.42c-.59,0-1.16.01-1.72.04-2.6.07-5.21.06-7.84-.04-.02-.02-.05-.04-.07-.04-1.1-.05-2.33-.19-3.67-.44s-2.49-.73-3.43-1.46c-.98,2.34-2.03,4.66-3.13,6.96-.12.19-.22.39-.32.6-.59,1.2-1.33,2.48-2.23,3.85s-1.89,2.19-2.97,2.44c-.05.02-.11.04-.18.04h-.18c-1.12-.09-1.92-.6-2.37-1.51s-.71-1.97-.77-3.16-.06-2.25-.02-3.16v-.35c.19-2.7.48-5.37.88-8.02.02-.09.05-.19.07-.28.05-.37.1-.77.16-1.2s.1-.79.12-1.09c.12-.63.41-1.02.88-1.18.47-.15.91-.11,1.32.14s.62.69.62,1.32c-.09.63-.23,1.5-.42,2.6-.42,2.37-.77,4.93-1.04,7.7s-.09,4.7.54,5.8h.04l.14-.07c.4-.3.76-.68,1.09-1.12,1.01-1.36,1.9-2.81,2.67-4.36,1.38-2.72,2.68-5.5,3.9-8.33v-.18c.07-1.08.36-2.09.88-3.02.52-.94,1.09-1.83,1.72-2.67.09-.14.18-.27.25-.39.26-.26.53-.36.83-.32.29.05.52.19.69.42.16.23.19.53.07.88-.52,1.12-1.05,2.38-1.62,3.76-.16.4-.32.76-.46,1.09-.19.49-.39.98-.6,1.48.4.49.94.85,1.63,1.07s1.35.38,1.99.47c2.04.26,4.09.32,6.15.18s4.14-.38,6.22-.7c.3-.05.58.02.83.19s.39.43.44.76ZM362.69,56.65"/>
  <path class="cls-1" d="M416.76,45.29c.21.33.26.67.16,1.02s-.32.61-.65.77c-.49.21-1.03.46-1.62.74-2.32,1.1-5.1,2.31-8.33,3.62s-6.39,2.29-9.47,2.94-5.55.51-7.4-.4c-.16-.09-.32-.19-.46-.28h-.04c-1.48-1.12-2.19-2.58-2.14-4.38s.59-3.56,1.63-5.31c1.04-1.75,2.34-3.12,3.88-4.13,1.55-1.01,3.11-1.28,4.68-.81.12.05.23.09.35.14.02.02.06.05.12.07.06.02.11.05.16.07l.04.04c.47.26.8.64.98,1.14.19.5.23,1,.14,1.49-.21,1.08-.65,2.08-1.32,3.01-.67.93-1.42,1.72-2.27,2.37-1.15.96-2.47,1.57-3.97,1.83-.73.12-1.48.07-2.25-.14-.07.59.04,1.33.33,2.23s.79,1.58,1.49,2.02c1.45.68,3.23.8,5.34.35s4.24-1.14,6.38-2.09,3.99-1.82,5.54-2.62c.26-.14.49-.27.7-.39,2.18-1.08,4.28-2.29,6.29-3.62.28-.19.58-.25.9-.19s.58.23.79.51ZM392.51,43.18c-.94.77-1.79,1.85-2.57,3.23.89.07,1.73-.14,2.51-.63s1.48-1.08,2.09-1.76c.63-.68,1.09-1.44,1.37-2.29-.61-.12-1.22-.01-1.83.32-.61.33-1.14.7-1.58,1.12Z"/>
  <path class="cls-1" d="M446.08,45.82c.05.23,0,.45-.16.63s-.36.28-.62.28h-.98c-1.69.05-3.38.05-5.06,0h-.28c-1.27-.05-2.63-.15-4.1-.32s-2.84-.51-4.13-1.04-2.3-1.34-3.02-2.44c-.56-1.01-.88-2.06-.95-3.16-.02-.12-.04-.23-.04-.35-.02-.37-.12-.7-.28-.98h-.35c-1.17.52-2.44,2.1-3.81,4.75-1.37,2.65-2.62,5.45-3.76,8.4s-1.94,5.13-2.41,6.54c-.23.54-.58.85-1.04.93s-.87-.02-1.23-.32-.52-.73-.47-1.32c.47-2.74.87-5.12,1.21-7.12l1.02-6.01c.34-2,.74-4.38,1.21-7.12.16-.61.48-.98.95-1.11.47-.13.9-.05,1.3.23s.57.73.53,1.34l-1.16,6.86s.02.09.05.12.07.05.11.04.06-.04.09-.09c.54-1.1,1.2-2.28,1.97-3.53.77-1.25,1.62-2.33,2.55-3.23.93-.9,1.89-1.38,2.9-1.42.52,0,.98.14,1.39.4.41.27.7.65.86,1.14.14.61.2,1.22.18,1.83,0,.45.02.88.07,1.3.33,1.71,1.29,2.87,2.9,3.48,1.61.61,3.21.96,4.8,1.05,2.98.19,5.93.04,8.86-.46.23-.02.44.03.62.16s.28.31.3.54Z"/>
</svg>